name analog
datacolumns 19
datarows 50
range 0.6880000000000001 0.7125
endheader
time	ground_force_vx	ground_force_vy	ground_force_vz	ground_force_px	ground_force_py	ground_force_pz	l_ground_force_vx	l_ground_force_vy	l_ground_force_vz	l_ground_force_px	l_ground_force_py	l_ground_force_pz	ground_torque_x	ground_torque_y	ground_torque_z	l_ground_torque_x	l_ground_torque_y	l_ground_torque_z
0.6880000000000001	-0.0	-0.0	-0.0	1.2519246339797974	52.17656707763672	-276.3692321777344	-2.683138847351074	-36.56517791748047	-187.84356689453125	-0.0	-0.0	-0.0	-0.0	-0.0	-0.0	34074.25	-5707.59619140625	1030.6929931640625
0.6885	-0.0	-0.0	-0.0	1.327390193939209	50.77975082397461	-273.1907653808594	-2.4169840812683105	-36.62095642089844	-186.44696044921875	-0.0	-0.0	-0.0	-0.0	-0.0	-0.0	34225.703125	-5634.0888671875	1038.151611328125
0.6890000000000001	-0.0	-0.0	-0.0	1.1812803745269775	50.45084381103516	-271.4248046875	-2.228670358657837	-36.66435623168945	-184.74411010742188	-0.0	-0.0	-0.0	-0.0	-0.0	-0.0	33904.9140625	-6104.7783203125	1046.0723876953125
0.6895	-0.0	-0.0	-0.0	2.098289728164673	48.83277893066406	-267.625732421875	-1.8758978843688965	-36.83014678955078	-185.05035400390625	-0.0	-0.0	-0.0	-0.0	-0.0	-0.0	33658.33984375	-6078.25732421875	1165.018310546875
0.6900000000000001	-0.0	-0.0	-0.0	2.722806692123413	47.79523468017578	-264.9844665527344	-1.2095237970352173	-36.87541961669922	-184.22442626953125	-0.0	-0.0	-0.0	-0.0	-0.0	-0.0	33438.0703125	-6279.95703125	1179.949462890625
0.6905	-0.0	-0.0	-0.0	2.5977888107299805	46.9039421081543	-260.773681640625	-0.3440299034118652	-37.04985427856445	-183.91778564453125	-0.0	-0.0	-0.0	-0.0	-0.0	-0.0	33199.515625	-6406.70751953125	1276.7459716796875
0.6910000000000001	-0.0	-0.0	-0.0	3.332597494125366	46.2692756652832	-257.3842468261719	0.1531057357788086	-37.00679016113281	-181.60107421875	-0.0	-0.0	-0.0	-0.0	-0.0	-0.0	33359.53125	-6765.6337890625	1269.851806640625
0.6915	-0.0	-0.0	-0.0	4.224669456481934	46.29042816162109	-254.8943328857422	1.3062779903411863	-36.97476577758789	-180.9987030029297	-0.0	-0.0	-0.0	-0.0	-0.0	-0.0	32987.328125	-6746.11767578125	1418.9964599609375
0.6920000000000001	-0.0	-0.0	-0.0	4.3085103034973145	46.08042144775391	-254.0612030029297	2.171620607376098	-36.84074020385742	-180.3857421875	-0.0	-0.0	-0.0	-0.0	-0.0	-0.0	33079.96484375	-6800.8125	1724.5750732421875
0.6925	-0.0	-0.0	-0.0	5.667414665222168	46.122440338134766	-254.78778076171875	2.714546203613281	-36.68529510498047	-178.765625	-0.0	-0.0	-0.0	-0.0	-0.0	-0.0	32589.587890625	-6675.79345703125	1620.5753173828125
0.6930000000000001	-0.0	-0.0	-0.0	5.63077974319458	46.174991607666016	-251.8589324951172	3.115525007247925	-37.18343353271485	-178.3606719970703	-0.0	-0.0	-0.0	-0.0	-0.0	-0.0	32550.826171875	-6842.20703125	1732.2681884765625
0.6935	-0.0	-0.0	-0.0	5.940074443817139	46.11741256713867	-251.06961059570312	3.438586950302124	-37.20447540283203	-179.03160095214844	-0.0	-0.0	-0.0	-0.0	-0.0	-0.0	32179.958984375	-7087.15771484375	1690.912841796875
0.6940000000000001	-0.0	-0.0	-0.0	5.7615966796875	46.15913391113281	-249.9688415527344	3.371009826660156	-37.45890426635742	-177.8843536376953	-0.0	-0.0	-0.0	-0.0	-0.0	-0.0	32375.52734375	-7149.365234375	1580.6220703125
0.6945	-0.0	-0.0	-0.0	6.1763787269592285	46.2274284362793	-248.36805725097656	3.3815677165985107	-37.67759704589844	-179.1563262939453	-0.0	-0.0	-0.0	-0.0	-0.0	-0.0	32581.87890625	-7066.7294921875	1619.4061279296875
0.6950000000000001	-0.0	-0.0	-0.0	6.114142894744873	45.94994354248047	-247.80943298339844	3.4024412631988525	-37.70848846435547	-177.8418731689453	-0.0	-0.0	-0.0	-0.0	-0.0	-0.0	32331.015625	-7219.6025390625	1624.364013671875
0.6955	-0.0	-0.0	-0.0	6.601577758789063	45.86472702026367	-247.14401245117188	3.991985321044922	-37.666778564453125	-179.25765991210938	-0.0	-0.0	-0.0	-0.0	-0.0	-0.0	32263.70703125	-7135.3466796875	1673.6075439453125
0.6960000000000001	-0.0	-0.0	-0.0	7.205514430999756	45.39815521240234	-245.89453125	4.153499126434326	-37.85894393920898	-178.95103454589844	-0.0	-0.0	-0.0	-0.0	-0.0	-0.0	32278.091796875	-7427.68115234375	1549.779052734375
0.6965	-0.0	-0.0	-0.0	7.424987316131592	44.80495071411133	-244.8349151611328	4.691281795501709	-37.567752838134766	-177.4508056640625	-0.0	-0.0	-0.0	-0.0	-0.0	-0.0	32307.361328125	-7206.54931640625	1569.4625244140625
0.6970000000000001	-0.0	-0.0	-0.0	8.09763240814209	45.31925582885742	-244.9568328857422	4.07030200958252	-37.87965774536133	-178.00454711914062	-0.0	-0.0	-0.0	-0.0	-0.0	-0.0	32266.720703125	-7240.74951171875	1424.098876953125
0.6975	-0.0	-0.0	-0.0	7.949916362762451	45.8028564453125	-247.2259521484375	3.783622980117798	-37.48946762084961	-179.15536499023438	-0.0	-0.0	-0.0	-0.0	-0.0	-0.0	32786.33203125	-7133.1484375	1216.291748046875
0.6980000000000001	-0.0	-0.0	-0.0	8.07979679107666	45.58628463745117	-248.20497131347656	3.319495439529419	-37.44839477539063	-181.250244140625	-0.0	-0.0	-0.0	-0.0	-0.0	-0.0	32633.552734375	-7254.35693359375	1275.29296875
0.6985	-0.0	-0.0	-0.0	8.643244743347168	45.92249298095703	-250.29307556152344	3.0161666870117188	-36.56517791748047	-182.7120513916016	-0.0	-0.0	-0.0	-0.0	-0.0	-0.0	33156.89453125	-6962.27001953125	1163.541259765625
0.6990000000000001	-0.0	-0.0	-0.0	9.148308753967283	46.07196044921875	-254.8025665283203	3.122004985809326	-36.62295913696289	-184.23130798339844	-0.0	-0.0	-0.0	-0.0	-0.0	-0.0	33184.18359375	-7394.42724609375	1064.2430419921875
0.6995	-0.0	-0.0	-0.0	8.77287769317627	46.36795425415039	-257.26861572265625	2.541966199874878	-36.54483795166016	-186.55487060546875	-0.0	-0.0	-0.0	-0.0	-0.0	-0.0	33702.05078125	-7284.89501953125	981.6866455078124
0.7000000000000001	-0.0	-0.0	-0.0	9.317096710205078	46.62519454956055	-259.9404296875	2.1772303581237797	-36.09330368041992	-188.0430145263672	-0.0	-0.0	-0.0	-0.0	-0.0	-0.0	33781.9296875	-7322.7705078125	829.7518310546875
0.7005	-0.0	-0.0	-0.0	9.733115196228027	46.437774658203125	-262.80548095703125	1.7539381980895996	-35.838417053222656	-190.01828002929688	-0.0	-0.0	-0.0	-0.0	-0.0	-0.0	34546.3671875	-7855.92333984375	871.8947143554688
0.7010000000000001	-0.0	-0.0	-0.0	9.327940940856934	46.74433135986328	-264.7299194335937	1.528369665145874	-35.72989273071289	-192.1930694580078	-0.0	-0.0	-0.0	-0.0	-0.0	-0.0	34966.296875	-7655.09765625	848.876953125
0.7015	-0.0	-0.0	-0.0	8.950836181640625	47.0112533569336	-266.926025390625	1.3306617736816406	-35.613677978515625	-196.29513549804688	-0.0	-0.0	-0.0	-0.0	-0.0	-0.0	35117.46875	-7523.5166015625	736.8662109375
0.7020000000000001	-0.0	-0.0	-0.0	9.505797386169434	46.80338668823242	-272.0658569335937	0.9858844876289368	-35.65189743041992	-198.4369659423828	-0.0	-0.0	-0.0	-0.0	-0.0	-0.0	35517.203125	-8019.39208984375	710.3143920898438
0.7025	-0.0	-0.0	-0.0	8.9904203414917	47.10042572021485	-274.4601135253906	1.2419509887695312	-35.48707580566406	-199.4842987060547	-0.0	-0.0	-0.0	-0.0	-0.0	-0.0	36183.9765625	-8101.55126953125	730.1082153320312
0.7030000000000001	-0.0	-0.0	-0.0	9.535684585571287	47.0313606262207	-279.3653564453125	1.290764093399048	-35.50531768798828	-202.974853515625	-0.0	-0.0	-0.0	-0.0	-0.0	-0.0	36576.02734375	-8189.158203125	693.83056640625
0.7035	-0.0	-0.0	-0.0	9.27789306640625	46.98155975341797	-281.8765563964844	0.6209754943847656	-35.51525115966797	-206.07798767089844	-0.0	-0.0	-0.0	-0.0	-0.0	-0.0	37437.0078125	-8309.7490234375	637.3564453125
0.704	-0.0	-0.0	-0.0	8.831840515136719	47.16949462890625	-289.6075439453125	0.5421621203422546	-35.51517105102539	-209.45201110839844	-0.0	-0.0	-0.0	-0.0	-0.0	-0.0	37886.734375	-8396.984375	660.3992309570312
0.7045	-0.0	-0.0	-0.0	8.017748832702637	48.16938781738281	-293.1779479980469	0.7195733189582825	-35.623172760009766	-211.8571929931641	-0.0	-0.0	-0.0	-0.0	-0.0	-0.0	38657.40234375	-8735.611328125	515.5889892578125
0.705	-0.0	-0.0	-0.0	7.336175918579102	48.99108123779297	-297.0243530273437	0.7294695973396301	-35.946929931640625	-215.8924865722656	-0.0	-0.0	-0.0	-0.0	-0.0	-0.0	39536.17578125	-8624.173828125	667.0458374023438
0.7055	-0.0	-0.0	-0.0	6.097472667694092	49.86469268798828	-304.67938232421875	0.3053761124610901	-36.35882568359375	-218.0250701904297	-0.0	-0.0	-0.0	-0.0	-0.0	-0.0	39802.62890625	-9035.041015625	696.3576049804688
0.706	-0.0	-0.0	-0.0	5.422513484954834	50.31782150268555	-309.3856201171875	0.5817771553993225	-37.10486602783203	-222.9535980224609	-0.0	-0.0	-0.0	-0.0	-0.0	-0.0	40338.6640625	-9296.5439453125	541.3262939453125
0.7065	-0.0	-0.0	-0.0	5.552585601806641	51.04274368286133	-313.938720703125	0.5616757273674011	-38.26328659057617	-226.016845703125	-0.0	-0.0	-0.0	-0.0	-0.0	-0.0	41432.01171875	-9315.833984375	613.6254272460938
0.707	-0.0	-0.0	-0.0	5.760335445404053	51.75603103637695	-315.8567199707031	1.2613970041275024	-38.93050765991211	-231.1766357421875	-0.0	-0.0	-0.0	-0.0	-0.0	-0.0	41956.33984375	-9359.9794921875	719.2020263671875
0.7075	-0.0	-0.0	-0.0	5.1742095947265625	51.61607360839844	-319.1230163574219	1.961349844932556	-39.83308410644531	-234.8261260986328	-0.0	-0.0	-0.0	-0.0	-0.0	-0.0	42698.86328125	-9947.498046875	795.4541625976562
0.708	-0.0	-0.0	-0.0	4.957808017730713	52.16026306152344	-323.6028747558594	3.1646928787231445	-40.03849411010742	-238.78179931640625	-0.0	-0.0	-0.0	-0.0	-0.0	-0.0	43182.37890625	-9911.5869140625	1079.988037109375
0.7085	-0.0	-0.0	-0.0	5.024286270141602	53.36064147949219	-324.887939453125	4.09033203125	-40.76426696777344	-241.112060546875	-0.0	-0.0	-0.0	-0.0	-0.0	-0.0	43700.6328125	-10138.044921875	1353.878662109375
0.709	-0.0	-0.0	-0.0	4.170207977294922	53.89541244506836	-326.22540283203125	5.2242960929870605	-42.158241271972656	-245.1803131103516	-0.0	-0.0	-0.0	-0.0	-0.0	-0.0	44344.62109375	-10358.853515625	1429.7755126953125
0.7095	-0.0	-0.0	-0.0	4.418426990509033	54.426029205322266	-326.0223999023437	5.8453521728515625	-43.621395111083984	-247.81185913085935	-0.0	-0.0	-0.0	-0.0	-0.0	-0.0	44978.4453125	-10446.4033203125	1664.748291015625
0.71	-0.0	-0.0	-0.0	4.671599388122559	55.20434188842773	-328.3826904296875	6.15929651260376	-44.80766296386719	-252.27566528320312	-0.0	-0.0	-0.0	-0.0	-0.0	-0.0	45361.10546875	-10421.64453125	1832.1697998046875
0.7105	-0.0	-0.0	-0.0	4.343063831329346	55.98330307006836	-329.6463623046875	6.000943660736084	-46.73168563842773	-255.69178771972656	-0.0	-0.0	-0.0	-0.0	-0.0	-0.0	46308.796875	-10791.0888671875	1752.1600341796875
0.711	-0.0	-0.0	-0.0	4.512392520904541	56.24128723144531	-328.45733642578125	5.835966110229492	-48.40028381347656	-262.2874450683594	-0.0	-0.0	-0.0	-0.0	-0.0	-0.0	47188.578125	-10663.3974609375	1788.69287109375
0.7115	-0.0	-0.0	-0.0	4.066379547119141	56.36364364624024	-326.76531982421875	4.663820266723633	-49.99949645996094	-264.9548645019531	-0.0	-0.0	-0.0	-0.0	-0.0	-0.0	47623.04296875	-10629.8056640625	1503.4830322265625
0.712	-0.0	-0.0	-0.0	4.2451252937316895	56.80377960205078	-327.7875671386719	2.9274559020996094	-51.79387283325195	-270.6663818359375	-0.0	-0.0	-0.0	-0.0	-0.0	-0.0	48584.19140625	-10681.14453125	1208.289306640625
0.7125	-0.0	-0.0	-0.0	3.916014432907105	56.517913818359375	-325.66851806640625	1.559251308441162	-53.541629791259766	-276.3433837890625	-0.0	-0.0	-0.0	-0.0	-0.0	-0.0	49654.19140625	-10755.3486328125	891.4021606445312
